HIERARCHY
ROOT Hips
{
    OFFSET 0.0 0.0 0.0
    CHANNELS 6 Xposition Yposition Zposition Zrotation Xrotation Yrotation
    JOINT Spine
    {
        OFFSET 0.0 5.0 0.0
        CHANNELS 3 Zrotation Xrotation Yrotation
        JOINT Chest
        {
            OFFSET 0.0 5.0 0.0
            CHANNELS 3 Zrotation Xrotation Yrotation
            JOINT Neck
            {
                OFFSET 0.0 8.0 0.0
                CHANNELS 3 Zrotation Xrotation Yrotation
                JOINT Head
                {
                    OFFSET 0.0 5.0 0.0
                    CHANNELS 3 Zrotation Xrotation Yrotation
                    End Site
                    {
                        OFFSET 0.0 3.0 0.0
                    }
                }
            }
            JOINT LeftShoulder
            {
                OFFSET -5.0 0.0 0.0
                CHANNELS 3 Zrotation Xrotation Yrotation
                JOINT LeftArm
                {
                    OFFSET 0.0 -10.0 0.0
                    CHANNELS 3 Zrotation Xrotation Yrotation
                    JOINT LeftForeArm
                    {
                        OFFSET 0.0 -10.0 0.0
                        CHANNELS 3 Zrotation Xrotation Yrotation
                        End Site
                        {
                            OFFSET 0.0 -3.0 0.0
                        }
                    }
                }
            }
        }
    }
}

MOTION
Frames: 25
Frame Time: 0.033333
960.000000 445.000000 88.467677 0.000000 0.000000 0.000000 0.000000 0.000000 0.000000 23.025492 -14.249695 0.000000 180.000000 0.511774 0.000000 21.801409 -1.059147 -0.000000 158.198591 14.219922 30.000000 15.945396 -11.223970 0.000000 18.000000 0.221849 0.000000
1691.525230 140.756605 105.438245 0.000000 0.000000 0.000000 0.000000 0.000000 0.000000 -163.376529 2.901525 4.973798 16.623471 10.408822 4.973798 -171.853121 -4.409550 3.759997 99.744051 -11.290723 29.763441 -171.126653 -3.737364 -3.759997 0.673538 0.431261 0.313953
1636.048050 128.802021 100.485167 0.000000 0.000000 0.000000 0.000000 0.000000 0.000000 157.904128 -23.124744 9.635073 -22.095872 -11.084200 9.635073 -171.936471 -3.713610 7.460697 -143.675701 -1.462227 29.057495 -173.500805 -4.154938 -7.460697 0.570999 0.448287 0.626666
1578.156967 80.474526 105.782906 0.000000 0.000000 0.000000 0.000000 0.000000 0.000000 -139.519796 -4.270637 13.690942 40.480204 15.543191 13.690942 -174.507724 -4.588761 11.043737 119.111399 -6.892008 27.893295 -173.607258 -3.626499 -11.043737 0.461920 0.484856 0.936907
960.418757 444.998421 119.447395 0.000000 0.000000 0.000000 0.000000 0.000000 0.000000 25.077893 -36.723137 16.886559 180.000000 0.788811 16.886559 23.861935 12.159173 14.452610 156.138065 10.928139 26.289200 17.903699 -5.796203 -14.452610 18.000000 0.272017 1.243449
960.523360 444.997533 111.435288 0.000000 0.000000 0.000000 0.000000 0.000000 0.000000 25.638906 -27.651754 19.021130 180.000000 9.471721 19.021130 24.425035 14.128745 17.633558 155.574965 15.755434 24.270510 18.452907 -6.857808 -17.633558 18.000000 0.301910 1.545085
960.627905 444.996447 119.739973 0.000000 0.000000 0.000000 0.000000 0.000000 0.000000 26.219073 37.433735 19.960535 180.000000 -11.416851 19.960535 25.006291 0.353802 20.536413 154.993709 -9.468541 21.869059 19.024920 -0.461565 -20.536413 18.000000 -0.500170 1.840623
1126.242828 420.359820 141.717806 0.000000 0.000000 0.000000 0.000000 0.000000 0.000000 31.410514 4.574427 19.645745 -148.589486 0.235694 19.645745 32.280463 -1.004378 23.115397 -131.603972 -4.088355 19.122720 45.585331 0.858750 -23.115397 -13.449727 -0.087412 2.128896
1257.895088 650.549197 130.161746 0.000000 0.000000 0.000000 0.000000 0.000000 0.000000 25.073180 -25.323646 18.096541 -154.926820 18.521693 18.096541 46.260945 -4.475938 25.329838 -154.651428 -5.007035 16.074804 27.339487 5.746153 -25.329838 -13.619892 -2.478101 2.408768
960.941083 444.992008 146.434605 0.000000 0.000000 0.000000 0.000000 0.000000 0.000000 28.072001 -15.902206 15.410265 180.000000 15.105504 15.410265 26.849221 -5.292319 27.144812 153.150779 3.116255 12.773379 20.864045 -2.187254 -27.144812 18.000000 0.536903 2.679134
1163.815842 547.748709 148.115345 0.000000 0.000000 0.000000 0.000000 0.000000 0.000000 117.162728 -9.312397 11.755705 -62.837272 2.786314 11.755705 102.363764 -1.033412 28.531695 -47.376450 5.758678 9.270510 104.768601 -0.395830 -28.531695 -6.003489 -0.109307 2.938926
961.149372 444.988063 141.045746 0.000000 0.000000 0.000000 0.000000 0.000000 0.000000 29.395983 -21.925417 7.362491 180.000000 21.513364 7.362491 28.146217 -5.237260 29.468618 151.853783 11.461421 5.621439 22.170006 -9.544913 -29.468618 18.000000 0.776907 3.187120
1136.717377 590.104480 136.447276 0.000000 0.000000 0.000000 0.000000 0.000000 0.000000 115.752126 0.021336 2.506665 -64.247874 -3.543915 2.506665 73.638146 1.629337 29.940802 -21.842452 1.412634 1.883716 75.369282 4.099266 -29.940802 -6.767207 -0.608945 3.422736
1163.079758 634.077559 157.979895 0.000000 0.000000 0.000000 0.000000 0.000000 0.000000 132.174340 -1.281563 -2.506665 -47.825660 1.891648 -2.506665 94.255711 -0.378341 29.940802 -149.364979 -6.641487 -1.883716 30.021641 4.979206 -29.940802 -5.096180 0.715509 3.644843
961.460830 444.980668 148.180443 0.000000 0.000000 0.000000 0.000000 0.000000 0.000000 31.497152 -22.928114 -7.362491 180.000000 6.306172 -7.362491 30.152455 -8.195534 29.468618 149.847545 2.743144 -5.621439 24.175589 -3.842203 -29.468618 18.000000 0.597161 3.852566
1097.449951 565.089898 140.079181 0.000000 0.000000 0.000000 0.000000 0.000000 0.000000 -119.219568 6.051335 -11.755705 60.780432 -9.186765 -11.755705 -150.180642 -6.197707 28.531695 48.804955 -2.163137 -9.270510 -149.874178 -6.275677 -28.531695 2.713854 0.577318 4.045085
1114.140244 528.302071 159.316744 0.000000 0.000000 0.000000 0.000000 0.000000 0.000000 -142.671523 -3.415024 -15.410265 37.328477 -0.446990 -15.410265 -177.395681 0.144070 27.144812 34.687329 -2.962001 -12.773379 161.894167 4.542819 -27.144812 -0.910956 -0.119644 4.221640
1116.433640 479.728639 157.205256 0.000000 0.000000 0.000000 0.000000 0.000000 0.000000 -102.267481 -13.639546 -18.096541 77.732519 15.479902 -18.096541 -163.695626 -7.883590 25.329838 38.575767 1.620991 -16.074804 -176.001122 -1.307959 -25.329838 0.706594 0.132660 4.381533
1135.931282 466.493965 160.648411 0.000000 0.000000 0.000000 0.000000 0.000000 0.000000 -112.868406 1.730658 -19.645745 67.131594 -16.509670 -19.645745 -159.517862 -4.461280 23.115397 36.204678 -3.604399 -19.122720 -154.426613 -6.047447 -23.115397 2.428729 0.498341 4.524135
1141.618767 467.420679 157.831007 0.000000 0.000000 0.000000 0.000000 0.000000 0.000000 -123.086385 -11.306391 -19.960535 56.913615 -2.948453 -19.960535 -154.885724 1.093375 20.536413 36.481623 -0.707492 -21.869059 -153.965441 -5.716476 -20.536413 2.446728 0.487344 4.648882
1150.647926 469.370956 128.057104 0.000000 0.000000 0.000000 0.000000 0.000000 0.000000 -43.953779 2.335240 -19.021130 136.046221 28.004771 -19.021130 -154.327268 -7.600506 17.633558 60.745168 8.094986 -24.270510 -153.350642 -6.994191 -17.633558 2.386216 0.661286 4.755283
1151.529922 496.420240 148.129244 0.000000 0.000000 0.000000 0.000000 0.000000 0.000000 -116.362129 7.192998 -16.886559 63.637871 -2.805296 -16.886559 -149.081043 3.421206 14.452610 35.941860 -2.901510 -26.289200 -156.847177 0.748932 -14.452610 2.056513 -0.030756 4.842916
1148.402367 515.713574 132.831934 0.000000 0.000000 0.000000 0.000000 0.000000 0.000000 -118.252650 -19.005049 -13.690942 61.747350 8.802898 -13.690942 -138.082896 5.525575 11.043737 -156.312677 -5.961785 -27.893295 21.649626 9.164321 -11.043737 2.962417 0.052174 4.911436
1175.363617 533.368646 124.091755 0.000000 0.000000 0.000000 0.000000 0.000000 0.000000 -95.476638 -26.165110 -9.635073 84.523362 9.841986 -9.635073 -113.907461 5.399218 7.460697 -155.995907 -5.952205 -29.057495 12.512064 8.933684 -7.460697 -16.748794 -0.893368 4.960574
1199.533310 485.991104 144.832817 0.000000 0.000000 0.000000 0.000000 0.000000 0.000000 -100.003195 8.162675 -4.973798 79.996805 4.111803 -4.973798 -86.083188 -6.106315 3.759997 38.843754 -6.167713 -29.763441 -106.539452 1.623172 -3.759997 6.197806 -0.029419 4.990134
